# xmcd CD database file
#
# Track frame offsets:
#	150
#	12759
#	23949
#	35995
#	48221
#	59699
#	72309
#	85153
#	97980
#	110723
#	123608
#	137052
#	149408
#	161571
#	173956
#	185090
#	196619
#	208906
#	220822
#	232388
#	244608
#	255769
#	266817
#	278293
#	289862
#
# Disc length: 4019 seconds
#
# Revision: 0
# Processed by: cddbd v1.5.1PL0 Copyright (c) Steve Scherf et al.
# Submitted via: CDex 1.51
#
DISCID=7e0fb119
DTITLE=Blind Boy Fuller - Remastered 1935-1938 #D
DYEAR=2004
DGENRE=Blues
TTITLE0=Shake That Shimmy    
TTITLE1=Heart Ease Blues    
TTITLE2=I'm Going to Move (To the Edge of Town)    
TTITLE3=Pistol Slapper Blues
TTITLE4=Mean and No Good Woman  
TTITLE5=Georgia Ham Mama    
TTITLE6=Piccolo Rag    
TTITLE7=Funny Feeling Blues    
TTITLE8=Painful Hearted Man    
TTITLE9=You've Got to Move It Out    
TTITLE10=Mama Let Me Lay It on You, No. 2    
TTITLE11=Meat Shakin' Woman    
TTITLE12=I'm a Good Stem Winder    
TTITLE13=What's That Smells Like Fish    
TTITLE14=She's a Truckin' Little Baby    
TTITLE15=Jivin' Woman Blues    
TTITLE16=You're Laughing Now
TTITLE17=Stop Jivin' Me Mama    
TTITLE18=Long Time Trucker    
TTITLE19=Big House Bound   
TTITLE20=Flyin' Airplane Blues    
TTITLE21=Get Your Yas Yas Out    
TTITLE22=Jitterbug Rag    
TTITLE23=Screaming and Crying Blues    
TTITLE24=Blacksnakin' Jiver    
EXTD=YEAR: 2004
EXTT0=
EXTT1=
EXTT2=
EXTT3=
EXTT4=
EXTT5=
EXTT6=
EXTT7=
EXTT8=
EXTT9=
EXTT10=
EXTT11=
EXTT12=
EXTT13=
EXTT14=
EXTT15=
EXTT16=
EXTT17=
EXTT18=
EXTT19=
EXTT20=
EXTT21=
EXTT22=
EXTT23=
EXTT24=
PLAYORDER=
